<?xml version="1.0" encoding="utf-8"?>
<!-- Generator: Adobe Illustrator 25.3.1, SVG Export Plug-In . SVG Version: 6.00 Build 0)  -->
<svg version="1.1" id="レイヤー_1" xmlns="http://www.w3.org/2000/svg" xmlns:xlink="http://www.w3.org/1999/xlink" x="0px"
	 y="0px" viewBox="0 0 1024 1024" style="enable-background:new 0 0 1024 1024;" xml:space="preserve">
<style type="text/css">
	.st0{fill-rule:evenodd;clip-rule:evenodd;fill:#404040;}
	.st1{fill-rule:evenodd;clip-rule:evenodd;fill:#FFFFFF;}
</style>
<g>
	<path class="st0" d="M925.3,767.3v-1.8c0-3.1,0-6.1-1.2-8.6c-1.2-4.9-1.8-9.8-1.2-15.4c0-3.7,0-7.4-0.6-10.4v-1.8
		c-0.6-4.9,0-10.4-0.6-15.4v-6.1c-0.6-5.5,0.6-10.4,0.6-16c0.6-6.1,0-12.3-0.6-18.4l-1.2-14.1v-10.4c0.6-6.8,0.6-14.1,1.8-20.9
		c0.6-3.1,1.2-6.1,0.6-9.2V610c0.6-3.7,0.6-8,0.6-11.7v-6.8c1.2-6.8,1.2-14.1,0-20.3c-0.6-4.9-0.6-9.8,0-14.7v-3.1
		c-0.6-3.1-1.2-6.1-0.6-9.2c2.5-9.8,1.8-19.7,0.6-29.5v-15.4c0.6-4.9,0.6-10.4,0-16c0-4.9-1.2-9.8-1.2-14.7v-11.1
		c1.2-6.1,1.8-11.7,1.2-17.8l-0.6-16l-1.2-5.5c-1.2-5.5-1.2-11.1-0.6-16.6v-17.8c-0.6-5.5-0.6-11.1-0.6-16.6l0.6-14.1
		c0-4.9,0.6-10.4,1.8-15.4v-4.9l-1.2-10.4c-0.6-2.5,0-4.9,0-7.4c1.2-3.7,1.8-7.4,1.8-11.7l-0.6-8.6l-1.2-16.6c0-3.7-0.6-8,0-11.7
		c1.2-6.1,0.6-11.7,0-17.2c-0.6-1.2-0.6-3.1-0.6-4.3c1.2-9.2-1.2-18.4-4.9-27c0-0.6-1.2-1.8-1.8-2.5c-1.2-1.2-3.1-1.8-4.9-2.5
		c-6.1-3.7-13.5-4.9-20.3-3.1l-11.7,0.6c-3.1,0-6.8,0-9.8,0.6c-1.2,0.6-2.5,0.6-4.3,0.6c-4.3,0-8.6,0-12.3,0.6
		c-6.1,0.6-11.7,0.6-17.8,0.6h-4.3c-3.7-0.6-8-1.2-11.7-1.2c-7.4,0-14.7-1.2-21.5-2.5c-5.5-0.6-10.4-1.2-16-1.2h-7.4l-12.3,1.2
		l-11.7,0.6l-8,0.6h-13.5c-3.7,0.6-7.4,1.2-10.4,0c-2.5-0.6-4.9-0.6-8-0.6c-6.1,0-11.7,0.6-17.8,0h-1.2l-14.1,1.8l-12.3,0.6h-9.8
		c-4.9-0.6-10.4,0-16-1.2c-3.1-1.2-6.1-1.2-9.2-0.6h-3.1l-11.7,1.2h-4.9l-9.2,1.8h-18.4l1.8-2.5l5.5-6.1l1.8-2.5l5.5-6.1
		c1.8-1.8,3.7-3.7,6.1-4.9l3.7-3.1l11.7-9.2c2.5-3.1,6.1-4.9,9.2-8l9.2-8l5.5-6.8c2.5-3.7,5.5-6.1,8.6-9.2c2.5-3.1,6.8-5.5,8.6-9.2
		l2.5-2.5l6.8-6.8c4.3-2.5,7.4-6.8,11.1-9.8c2.5-1.2,3.1-3.7,4.9-5.5l9.2-8c3.1-2.5,5.5-5.5,8-9.2l3.1-4.9l4.3-4.9l5.5-6.8l3.7-6.1
		v-8c-1.2-4.9-4.3-9.2-9.2-11.7c-5.5-3.1-11.7-3.7-17.2-2.5c-3.1,0.6-5.5,2.5-8,4.9c-1.8,2.5-3.7,4.9-6.1,6.1l-1.8,1.8l-2.5,2.5
		c-3.1,1.8-6.8,4.3-9.2,6.8l-6.8,6.1c-1.2,2.5-2.5,4.9-4.9,6.1l-5.5,6.1l-5.5,5.5c-2.5,2.5-6.8,4.9-9.2,6.8l-6.8,6.1l-6.8,8.6
		l-6.8,7.4l-11.1,9.8l-6.1,3.7l-8,6.8l-7.4,6.8c-3.7,2.5-7.4,4.9-10.4,8c-2.5,2.5-4.9,4.9-6.8,6.1l-3.7,2.5
		c-1.8,3.1-4.3,5.5-7.4,7.4l-4.9,4.3l-3.7,4.9l-12.9,11.7l-2.5,2.5c-2.5,1.2-5.5,3.7-8,6.1c-1.8,1.8-3.7,3.1-5.5,4.3h-4.3l-4.9-4.9
		l-8-6.8l-5.5-4.3l-5.5-5.5l-7.4-7.4c-2.5-2.5-6.1-4.9-9.2-6.1L467,175c-4.9-3.1-9.2-5.5-13.5-9.2l-6.8-6.1l-9.2-8.6
		c-1.8-1.2-3.1-2.5-4.9-4.9l-8.6-9.2l-5.5-4.9l-11.1-10.4l-7.4-6.1l-8.6-8c-3.7-3.1-6.8-6.8-9.8-10.4l-4.9-4.3l-9.8-8
		c-1.2-0.6-1.8-1.8-2.5-2.5l-3.7-4.9l-9.2-7.4L341,61.3l-4.9-3.1c-0.6,0-1.8-1.2-2.5-1.2c-2.5-1.8-4.9-3.1-8-3.7
		c-3.1-0.6-6.1-1.2-9.2-1.2c-1.2,0-3.1,0-4.3,0.6c-0.6,0.6-1.8,1.2-3.1,1.8c-2.5,1.2-3.7,3.1-4.9,5.5c-2.5,3.1-2.5,6.8-3.1,10.4V73
		l0.6,4.9c0.6,1.8,0.6,3.7,1.8,4.9c1.8,3.1,4.9,6.1,7.4,8l8,6.1l14.1,12.3l6.8,6.8c1.2,1.2,3.1,1.8,3.7,3.7l5.5,6.8l3.7,4.9l4.9,4.9
		l2.5,1.8l0.6,0.6l4.9,4.9c2.5,1.2,4.9,3.1,6.1,4.9l1.8,1.8c3.1,1.2,5.5,3.7,8.6,5.5c3.1,1.8,6.1,4.3,8,6.1l4.9,3.7l6.8,6.8l7.4,5.5
		l2.5,3.1l6.8,7.4c2.5,2.5,4.9,5.5,6.8,8l9.2,12.3l2.5,3.1h-10.4c-6.1,0-12.3,1.2-18.4,1.8h-23.3c-8.6,0.6-17.2-0.6-25.2-1.2
		c-4.3-0.6-8.6-0.6-12.3-0.6c-5.5,0.6-11.1,0-16.6-0.6c-4.9-1.2-9.2-1.2-14.1-1.2h-9.2c-6.1-1.2-11.7-0.6-17.2-0.6
		c-4.9,0-8.6,0.6-12.9,1.2h-9.2l-14.1-1.2c-8-0.6-15.4-0.6-22.7,0.6l-16.6,1.8c-4.9,0.6-8,0-12.3,0.6c-2.5,0.6-4.9,1.2-6.8,0.6
		h-11.7c-4.9,0-10.4,0-16-0.6c-4.9-0.6-8.6,0-13.5,0.6c-4.9,1.2-9.8,1.2-14.7,1.2h-1.2L129,213l-6.8,0.6c-6.8,0-11.7,3.7-16,8
		c-6.1,6.8-9.8,15.4-9.2,24.6v24.6c1.2,4.9,1.2,9.8,1.2,15.4v8l0.6,11.7l0.6,11.7c0,3.1-0.6,6.8-0.6,9.8l-0.6,4.9
		c-0.6,4.3-0.6,8.6,0,12.3v12.9l1.2,9.8l-1.2,14.1c-1.2,7.4-1.2,15.4,0.6,23.3c1.2,4.9,1.8,9.8,1.2,14.7l-1.2,6.8l-2.5,8.6v16
		l2.5,19.7l1.8,20.9v8c0,6.8,0,14.1-1.8,20.9c-1.2,4.3-1.2,8.6,0,12.9l0.6,4.9c0,2.5,0,4.9,1.2,7.4v2.5l0.6,17.8
		c0,2.5,0,4.9-0.6,7.4l-2.5,9.2v1.8c0,2.5,0.6,4.9,0.6,8c0,3.1,0,6.8,1.2,10.4v14.1c0,5.5,0,11.1-1.2,16.6v14.1
		c1.2,3.1,1.2,6.1,0,8.6c-0.6,3.7-0.6,7.4,0,10.4c1.2,7.4,1.8,15.4,1.2,23.3l-0.6,6.8l0.6,13.5l0.6,9.8l-0.6,25.2v16.6
		c0.6,4.3,1.2,8.6,0.6,12.3v2.5l0.6,6.8c0.6,6.8,3.7,11.7,10.4,14.1l3.7,1.8c4.9,2.5,9.2,3.7,14.1,3.1l6.8,0.6
		c4.9,1.8,9.2,1.2,14.1,1.2l21.5-2.5c6.1-0.6,12.3,0,18.4,0.6h22.7c4.9-0.6,8.6-1.2,12.9,0c3.7,1.2,8,1.8,12.3,0.6h14.1v2.5
		c2.5,6.1,6.1,11.7,9.8,16.6c3.1,3.7,7.4,6.8,9.8,11.1l6.8,13.5c1.2,2.5,2.5,5.5,4.9,7.4l3.7,3.1c2.5,3.1,6.8,6.1,9.8,8l4.9,3.7
		c1.8,1.8,3.7,3.1,6.1,4.3c5.5,0.6,10.4,3.7,16,4.9h3.7l1.2-0.6l8.6-0.6c3.7,0,6.8-0.6,10.4-1.8c5.5-1.2,11.1-4.9,14.7-9.2l9.8-11.1
		l3.1-2.5c2.5-1.2,4.9-3.7,6.1-6.8c1.2-3.1,3.1-5.5,5.5-8.6l3.7-6.8l0.6-1.8c3.1-6.8,8-12.9,11.7-19.7l3.1-4.9h1.2l11.7-1.2
		c1.8,0,3.7,0,4.9-1.2c4.9-0.6,10.4,0,15.4,0.6c4.9,1.2,9.8,2.5,15.4,2.5c3.1,0,6.8,0,9.8-0.6c4.9-0.6,9.8,0,15.4-1.2
		c1.8,0,3.7,0,5.5,0h12.3l4.9-0.6c2.5,0,5.5-0.6,8,0l19.7,2.5c3.7,0,7.4,1.2,11.1,0h3.1c3.1,0.6,6.1,0.6,8.6,0
		c5.5-1.2,11.1-0.6,17.2-0.6h4.9l11.7-1.2c7.4,0,14.1-0.6,20.9-0.6l7.4-0.6l1.2,2.5c2.5,4.9,3.7,8.6,7.4,11.7
		c5.5,5.5,10.4,11.7,14.7,18.4c1.8,4.9,4.9,8.6,8,11.1l4.9,5.5c3.1,3.1,5.5,6.1,9.2,8.6l4.9,4.3c8,7.4,18.4,11.7,29.5,12.3h2.5
		c6.8-0.6,12.9-0.6,19.7-2.5l11.7-4.9c2.5-1.2,4.9-3.1,6.1-5.5l2.5-2.5c3.7-4.9,6.8-8.6,9.2-14.1l3.7-6.8l11.1-13.5
		c1.2-1.8,2.5-3.1,3.1-5.5l3.7-8.6l6.1-9.2h9.2c3.1,0,6.1,0.6,9.2,0c8-1.2,16-1.2,24.6,0h16c4.9-1.2,9.8-0.6,14.7,0
		c4.9,0,9.2,0,13.5-1.2c1.2-0.6,2.5-0.6,4.9-0.6h19c4.9,0,10.4,0,16-1.8c3.1-0.6,5.5-0.6,8-2.5c2.5-1.8,4.9-3.7,6.1-6.8l1.2-1.8
		l4.3-4.3c2.5-3.7,4.3-7.4,4.9-11.7L925.3,767.3"/>
	<path class="st1" d="M836.2,640.1c0-6.8,0-14.1,0.6-20.9l0.6-16.6c1.2-14.1,1.2-28.9-0.6-43c-0.6-4.9-1.2-8.6-0.6-12.9
		c1.8-9.8,2.5-20.3,1.2-30.1c0-5.5-1.2-11.1,0-16.6v-8l-1.2-19.7v-14.1c0.6-4.9,1.2-9.8,0-14.7l-0.6-12.3c-0.6-4.9,0-9.2,0.6-14.1
		c0.6-3.1,0.6-6.1,0-8.6c-0.6-4.9-1.2-8.6-1.2-12.9v-7.4l-0.6-11.7c0-4.9,0-8.6,1.2-12.9l0.6-1.8c0.6-7.4,1.2-14.1,0.6-20.9V331
		c0-8-2.5-14.7-7.4-20.3c-3.1-3.1-6.1-5.5-9.8-8l-1.8-1.2c-4.3-1.2-8-1.8-12.3-2.5c-4.9,0-9.8-0.6-14.1,0h-13.5
		c-2.5,0-4.9,0.6-7.4,0c-4.9-0.6-10.4-0.6-14.7,0h-23.3c-4.3,0-8,1.2-11.7,0.6l-5.5-0.6c-5.5,0-11.7-1.8-17.2-0.6h-17.8
		c-1.8,0-3.7,0-5.5,0c-5.5,0.6-11.7,0.6-17.8-0.6c-4.9-0.6-9.2-0.6-14.1,0h-14.1c-2.5-0.6-4.9-0.6-6.8-0.6c-2.5,0-4.9,0-7.4,1.2
		h-9.8l-10.4-0.6c-4.9-0.6-9.8,0-15.4,1.2h-4.9c-4.9-1.2-8.6-1.2-12.9-1.2l-11.7-0.6h-4.9c-8,1.8-16,3.1-24.6,2.5h-11.7
		c-3.7-1.2-6.8-1.2-10.4-0.6c-4.3,0.6-8.6,0.6-11.7,0l-2.5-1.8h-11.1c-1.8-0.6-3.7-0.6-4.9,0h-11.7c-2.5,0-4.9,0-6.8,1.2
		c-6.1,1.2-11.7,1.2-17.8,1.2s-12.3-1.2-19-1.8c-3.1,0-6.1,0-9.2-1.2c-4.9-1.2-10.4-1.2-15.4,0l-5.5,0.6c-8,0-15.4,0-23.3-0.6
		c-3.1,0-6.8-0.6-9.8,0.6c-2.5,1.2-4.9,0.6-7.4,0h-3.1h-8.6l-7.4,0.6c-6.8,0-12.9,0.6-19-1.2c-1.8-0.6-3.7-0.6-4.9,0
		c-4.9,0.6-9.2,1.2-14.1,0.6h-3.1l-11.1,1.2l-8.6,1.2h-8l-12.3-1.8h-4.9c-4.3,0.6-8,0.6-11.7,0.6c-5.5-0.6-10.4,0-16,0.6
		c-4.9,0.6-8.6,2.5-12.3,4.9c-2.5,1.2-4.9,3.1-6.1,5.5c-2.5,5.5-4.3,11.1-5.5,16.6l-0.6,8.6l0.6,14.1v6.1
		c-0.6,4.9-1.2,10.4-0.6,15.4v3.1c-1.2,4.9-1.8,9.8-2.5,14.7l-0.6,14.7c0,6.8-1.2,12.3,0,19l1.8,12.9v6.1c-1.2,8-1.2,15.4,0.6,23.3
		c1.2,4.9,1.2,9.8,0,15.4c-1.2,6.8-1.2,14.1,0,20.3v20.9l-0.6,28.3v6.1c0.6,4.9,0.6,10.4,0.6,14.7c0,8-0.6,16.6-0.6,25.2
		c0,6.1,0,11.7-1.2,17.8v19.7c1.2,6.8,0,14.1,1.2,20.9v2.5c-0.6,5.5-1.2,11.7-0.6,17.2c0,6.8,0.6,14.1,1.2,20.3
		c0,3.1,0.6,6.8,2.5,9.2c4.9,6.8,11.1,10.4,19,12.3c4.9,0.6,8.6,1.2,13.5,1.2h16c8.6-0.6,16-2.5,24-2.5c6.1,0,11.7,0.6,17.2,1.2
		l17.8,0.6h36.3l8,1.2l8.6-1.2c3.1-0.6,6.8-0.6,9.8,0c11.1,0.6,22.7,1.2,33.8,1.2l14.7-1.2h3.7c4.3-0.6,8-1.8,11.7-1.2h10.4l6.8,1.2
		l4.9,1.2c3.7,0.6,7.4,0.6,11.1,0l9.2,0.6c3.1,0.6,6.1,0.6,9.2,0.6h7.4l11.7-0.6h10.4l14.1-1.2h16.6c4.3,0,8,1.2,12.9,1.8l16-0.6
		h4.9c4.9,0.6,10.4,0.6,16,0c1.2-0.6,3.1-1.2,4.9-0.6h4.9c4.3,0,8.6,0,11.7-1.2h12.3c9.8,1.8,19.7,2.5,29.5,0
		c4.9-1.2,8-1.2,12.9-0.6h14.1c6.8,0,12.9,0.6,19.7,0l0.6,0.6c6.8,1.2,12.9,0.6,19.7,0.6h3.7c5.5-1.2,10.4,0,16,0
		c6.8,0,12.9,1.2,19.7,0c6.8-1.2,14.1-2.5,22.1-1.2h4.9c4.9,0.6,10.4,0.6,16,1.2h4.9c3.1,0,6.8,0,9.2-0.6c2.5,0,4.9-0.6,8-1.2
		c3.7,0,6.8-1.2,9.8-3.7l3.1-2.5c2.5-1.2,4.3-3.7,4.9-6.1c1.8-3.7,2.5-7.4,3.1-11.1c1.8-8.6,0.6-17.2,0-25.8
		C836.2,656.7,835.6,648.7,836.2,640.1 M341,506.1v2.5l-0.6,1.8c-0.6,0.6,0,0.6,0,1.8c-1.2,0,0,0.6-1.2,1.2l-0.6,2.5
		c-0.6,1.2-0.6,2.5-1.2,2.5v1.2l-1.2,2.5c0,0.6-0.6,1.2-1.2,2.5l-0.6,0.6l-4.9,6.1l-1.2,0.6c-3.7,3.1-7.4,5.5-11.7,7.4l-10.4,1.8
		c-4.9,0-9.2,0-14.1-1.2c-0.6,0-1.2,0-2.5-1.2l-2.5-1.2c-4.9-1.8-9.8-4.9-14.1-8.6c-5.5-4.9-9.2-11.7-10.4-19v-12.9l0.6-1.2v-1.8
		l0.6-1.2v-2.5l0.6-1.2l1.2-4.3l0.6-1.2c0.6-2.5,2.5-4.9,4.9-6.8l0.6-1.8l0.6-0.6l1.2-0.6c0.6-0.6,0.6-1.2,1.8-1.2v-0.6l1.2-0.6
		l8-4.9l3.7-1.8h1.2l0.6-0.6h3.1c3.1-1.2,5.5-1.8,8.6-1.8h6.8l1.8,0.6l1.2,0.6c0,0.6,0.6,0,1.2,0l0.6,1.2h0.6c0.6,0,1.2,0,1.2,0.6
		l1.8,0.6l1.2,0.6c3.7,1.8,7.4,4.3,11.1,7.4l5.5,8l0.6,1.2l0.6,1.2l2.5,6.8l1.2,6.8L341,506.1 M573.3,653.6c0,3.1-1.8,6.1-4.9,8
		l-2.5,0.6l-6.8,0.6H455.3c-3.1,0-4.9-1.8-6.8-4.3c-0.6-1.2-1.2-2.5-1.2-4.9v-3.7c0-2.5,1.2-4.9,3.1-6.1l5.5-6.8l7.4-8l6.1-6.1
		l6.8-8l11.7-11.7c1.8-2.5,4.9-4.9,6.8-7.4l7.4-6.8c1.8-1.2,3.7-2.5,5.5-2.5h3.7c3.7,0,7.4,1.8,9.8,4.9l14.7,15.4l7.4,6.8
		c3.7,3.1,6.8,6.8,9.8,10.4l4.9,4.9l9.2,8.6c1.8,2.5,4.3,4.9,4.9,7.4c1.2,1.8,1.2,3.1,1.2,4.9V653.6 M757.6,427.5l-0.6,3.1v1.8
		l-0.6,1.2l-0.6,0.6c-0.6,3.1-1.8,5.5-3.1,8.6l-2.5,4.9l-1.2,0.6c-0.6,0-0.6,0.6-1.2,0.6l-1.2,1.2c-2.5,2.5-4.9,3.1-8,4.9
		c-1.2,1.2-3.1,1.2-4.9,1.2l-1.2,0.6h-0.6c-0.6,0.6-1.8,0.6-2.5,0.6l-3.1,1.2l-3.7,0.6l-9.2,0.6c-3.1,0-5.5-0.6-8-1.2l-4.3-1.8
		l-6.8-3.7l-0.6-0.6l-1.8-1.2l-1.2-1.2H690c0-0.6-0.6-1.2-0.6-1.2l-3.1-4.9l-1.2-1.2v-0.6l-2.5-3.7l-0.6-2.5l-0.6-1.8v-1.8
		c-1.2-1.2-1.2-1.8-1.2-3.1v-1.2c-0.6,0-0.6-1.2-0.6-1.2v-10.4c0.6-3.7,0.6-7.4,2.5-11.1l4.3-6.8l0.6-1.2l0.6-0.6
		c0.6-1.2,1.8-2.5,2.5-3.1l1.2-0.6c1.2-1.8,3.7-3.1,5.5-4.9c1.2,0,2.5-0.6,3.1-1.8l2.5-0.6h1.2l3.1-1.2c4.9-0.6,9.8-0.6,14.7-0.6
		c3.7,0.6,6.8,1.8,10.4,2.5c4.3,2.5,8.6,4.9,12.9,7.4l1.8,1.8c2.5,2.5,4.9,4.9,6.1,7.4l0.6,1.2l1.8,4.9l0.6,2.5v1.8
		c1.2,0,0,0.6,0.6,0.6l1.2,6.8L757.6,427.5 M741.6,801.7l-2.5,0.6h-6.8l-3.7-0.6c-3.1-0.6-6.8-0.6-9.8,0c-5.5,0.6-11.1,1.2-16.6,1.2
		c-2.5,0-5.5,0-8,0.6c-4.3,1.2-9.2,1.2-14.1,0l-11.7-0.6H666l-6.8,0.6l8.6,14.1c4.3,6.1,8.6,11.7,14.1,17.2l4.9,4.9
		c4.9,4.3,14.7,5.5,20.9,1.2c2.5-1.2,4.3-3.1,6.8-4.9l2.5-2.5c2.5-1.8,4.9-3.7,6.1-6.1l9.2-11.7l8-11.1
		C739.8,802.9,741,802.9,741.6,801.7 M342.8,838.6c4.9-4.3,8.6-9.2,13.5-12.9c2.5-1.8,3.1-4.9,4.9-7.4l6.1-9.2l3.7-4.9l-8-0.6h-4.9
		c-4.9-0.6-9.2,0-14.1,0h-9.2c-5.5-0.6-11.1-0.6-16.6,0c-6.8,0-14.1,0.6-20.3-0.6h-8l5.5,8l7.4,10.4l1.2,1.8
		c3.7,3.1,6.1,7.4,9.2,10.4l0.6,0.6c6.8,8.6,6.8,6.8,14.1,8.6C333.6,844.1,338.5,842.9,342.8,838.6"/>
	<path class="st1" d="M890.9,667.7l0.6-11.7v-4.9c-0.6-3.1-0.6-6.8,0-9.8c1.2-5.5,1.2-11.1,0.6-16.6c0-3.1,0-6.1,1.2-9.2v-9.8
		c-1.2-4.3-1.2-8.6-1.2-13.5c0.6-8,1.2-16-0.6-24.6c-0.6-3.1-0.6-6.8,0-9.2l1.2-6.8c0.6-6.1,0-11.7,0-17.8v-0.6
		c-1.2-1.8-1.2-3.7-0.6-4.9V519l0.6-8.6l0.6-8.6V492c-0.6-3.1-1.2-6.1-1.2-9.2c0-1.8,0-4.3-0.6-6.8c-0.6-5.5-1.8-11.1-0.6-16.6
		c0.6-4.9,0.6-9.8,0.6-14.7c-0.6-4.3,0-8.6,1.2-12.9l0.6-5.5v-17.8c-1.2-7.4-1.2-15.4-2.5-23.3v-5.5l-0.6-7.4c0-3.7-1.2-7.4,0-11.1
		c1.2-3.1,1.2-6.8,0.6-9.8l-1.2-10.4v-11.1c0-5.5-1.2-10.4,0-15.4c0.6-4.9,0-9.2,0.6-14.1V280c0-2.5-1.2-4.9,0-6.8
		c0.6-6.1,0-12.3-0.6-18.4c0-3.1-1.2-4.9-3.7-7.4c-2.5-2.5-6.8-3.1-10.4-3.1l-8-0.6h-9.2c-7.4,0-14.1-1.8-21.5-1.8h-0.6l-5.5-0.6
		c-5.5,0-11.1-1.2-16.6-2.5c-2.5,0-5.5-1.2-8.6,0c-0.6,0.6-2.5,0.6-3.1,0.6l-6.1,0.6c-3.7,1.2-7.4,1.8-11.1,1.2H784
		c-5.5,1.2-11.1,1.2-16.6,0.6c-8,0-16,2.5-23.3,2.5c-4.3,0-8.6,0.6-12.3-0.6c-2.5-1.2-4.9-1.8-7.4-1.2h-1.8c-3.1,0-6.1-1.2-9.8-1.8
		h-20.9c-2.5-1.2-4.9-1.2-7.4,0h-9.2c-3.7,0-7.4,0-11.1,0.6l-12.3,2.5h-14.7l-2.5-0.6c-3.1,0.6-6.8,0-9.8-0.6
		c-2.5-0.6-4.9-1.2-7.4,0c-5.5,0.6-10.4,0-16-0.6c-4.9-0.6-9.2-1.2-14.1,0l-2.5-0.6h-5.5l-9.8-0.6l-4.3,0.6
		c-1.2,0.6-3.1,1.2-4.9,1.2c-3.1,0-6.1-0.6-9.2-1.2c-1.8-0.6-4.3-1.2-6.8-1.2c-4.9,0-8.6,0-12.9-1.2c-3.7-1.2-8-0.6-11.7,0.6
		c-0.6,0-1.8,0-2.5,0h-14.1c-4.3,0-8.6,1.2-12.3,2.5c-3.1,1.2-6.1,1.2-9.2,1.2h-15.4l-11.7-0.6c-3.1-0.6-6.1,0-8.6-0.6h-1.8
		c-5.5,1.2-11.1,1.2-16.6-0.6h-3.1l-8-1.2H408l-4.3-0.6l-6.8-0.6l-4.9-0.6c-1.8-1.2-3.7-0.6-5.5,0c-1.8,0-4.3,0.6-6.8,0
		c-3.7-0.6-6.8,0-9.8,0.6h-2.5l-9.2-0.6c-4.3-1.2-8.6-1.2-11.7,0c-6.1,0.6-11.7,1.2-17.2,2.5c-5.5,0.6-10.4,1.8-16.6,0.6h-36.9
		c-3.1,1.2-6.1,1.2-9.2,1.2l-4.9-0.6c-4.9,0-10.4,0-14.7-1.2h-2.5c-5.5,0-10.4-0.6-16-0.6l-12.9,0.6c-4.9,0.6-9.2,1.2-14.1,1.2h-8
		c-3.7,0-7.4-1.2-11.1,0h0c-4.3-1.2-8-1.2-11.7,0h-4.3c-2.5-1.2-4.9-1.2-7.4-0.6h-10.4c-3.1,0-4.9,1.2-8,1.8
		c-6.1,1.2-9.2,5.5-9.2,10.4c0,7.4-0.6,14.7,0,22.7v6.1l-0.6,20.3c0,5.5,0,11.1-1.2,16v5.5c0,2.5,0,4.9-0.6,6.8v3.1
		c0.6,2.5,0.6,4.9,0.6,7.4c0,4.9,0,10.4-0.6,15.4l-0.6,8.6l0.6,14.1v15.4l1.2,14.1v9.2c0.6,3.1,0.6,6.1,0.6,9.8v6.8
		c0.6,0.6,0.6,2.5,0.6,3.7c0,8.6,0,17.8-0.6,27l-1.2,14.1c0,4.9-1.8,9.8-1.2,14.7v17.8c0,6.8,3.1,13.5,2.5,19.7
		c1.2,3.7,0.6,7.4,0.6,11.1v34.4l0.6,16v5.5c-1.2,3.1-0.6,6.1-1.2,8.6v39.9c1.2,11.1,0,21.5,0.6,32.6l-1.2,16c0,2.5,0,5.5-0.6,8
		v10.4c-1.2,1.8-0.6,4.9,0,6.1v4.9c-1.2,3.1-1.2,5.5-1.2,8.6l1.8,8.6c0.6,4.9,1.8,8,1.8,12.9c0,2.5,0.6,6.1,1.8,9.2
		c2.5,3.1,4.9,6.8,9.2,7.4c7.4,1.8,15.4,1.8,23.3,0.6l11.7,0.6c4.9,0.6,9.8,0.6,14.7,0c3.7,0,6.8,0,10.4,0.6l11.7,1.8l6.8,0.6
		c3.1,1.2,6.8,1.2,9.8,1.2c5.5,0,11.1,0,16.6-1.8h0.6l11.7-1.2c3.7,0,7.4-0.6,11.7,0c5.5,0,11.1-0.6,16.6-0.6h0.6l11.7-1.2l14.1,0.6
		c3.1,0,6.1,0,8.6,0.6l6.1,1.2c2.5,0,5.5,0,8,0.6c4.9,0.6,9.2,0.6,14.1-0.6c5.5-1.2,11.1-1.8,17.2-1.2l14.1,0.6
		c4.9,0.6,9.2,0.6,14.1,0h6.8l6.8,0.6c5.5,0,10.4-0.6,16-1.2s10.4,0,16,1.2c2.5,0,4.9,0.6,7.4,0c2.5-1.2,4.9-0.6,6.8,0l6.8,0.6
		l14.7-0.6h3.1c2.5,1.2,5.5,1.2,8,0h6.8l8.6,1.2l13.5,1.2l16,0.6h5.5c4.9-1.8,9.2-1.8,14.1-2.5h24l8,0.6h20.3c3.1-0.6,5.5,0,8.6-0.6
		h1.8c3.1-1.2,6.8-1.2,10.4-1.2h33.8l9.2,1.8c2.5,0.6,5.5,0.6,8.6,0c1.8-0.6,3.7-1.2,6.1-0.6l6.8,0.6l2.5,0.6
		c1.8,0.6,3.7,0.6,4.9,0.6c3.1-0.6,5.5-1.2,8.6-0.6h2.5c3.1-0.6,6.8-1.2,9.8,0c3.1,0,6.8,0.6,10.4,0.6h12.3c2.5-0.6,4.9,0,8-0.6
		c3.1-0.6,6.1-1.2,9.8-0.6h1.2l4.3-0.6H784c3.1-1.2,6.1-0.6,9.2-2.5h2.5l6.8,1.2l6.8,1.8c2.5,0.6,5.5,0.6,8,0l8-1.2l10.4,0.6
		c1.2,0,2.5,0.6,3.7,0h4.9l8,0.6c6.8,0,14.1,1.2,20.3,0l14.1-3.7c1.2,0,1.8-1.2,2.5-1.8c2.5-3.7,4.9-8,4.9-11.7l1.2-16v-22.7
		c-1.2-4.9,0-9.2,0.6-14.1c1.2-5.5,1.2-11.7,0-17.2C891.5,679.4,890.3,673.3,890.9,667.7 M860.8,688.6l-2.5,17.8
		c0,6.1-1.2,11.7-0.6,18.4v4.9c-0.6,4.3-3.1,6.8-7.4,6.8h-8.6l-11.7-0.6c-3.7-0.6-7.4,0-11.7,0.6c-8.6,1.8-17.8,2.5-26.4,0.6h-4.3
		c-0.6,0-1.8,0-2.5-0.6c-2.5-1.2-5.5-0.6-8.6-0.6l-7.4-1.2c-6.8-0.6-13.5-0.6-20.3,0c-4.9,1.2-9.8,1.2-14.1,0h-17.2
		c-3.7-0.6-6.8-0.6-10.4,0l-9.8,0.6l-16,1.2h-25.2c-4.9-1.8-9.2-1.2-13.5-1.2c-3.1,0-6.8-0.6-9.2,0.6c-4.3,1.2-8,1.2-11.7,0.6h-1.2
		c-5.5,0-10.4-1.2-15.4-1.2s-8.6-0.6-13.5,0h-12.3l-11.7,0.6c-3.1,0-6.8,0.6-9.8,1.2l-8.6,1.2c-6.8,1.2-13.5,1.8-19.7,0.6l-8.6-0.6
		c-4.9-0.6-9.2-1.8-14.1-1.8h-11.7c-1.8-0.6-4.3-0.6-6.1,0h-14.7c-3.7-1.2-7.4-0.6-11.1,0h-12.9l-11.7-1.2
		c-6.1-0.6-12.3-1.2-17.8-0.6h-10.4c-6.1-0.6-12.3-0.6-18.4,0c-3.7-0.6-7.4,0-11.1,0.6h-2.5c-11.1,0-21.5,0.6-32.6,1.8
		c-2.5,0-5.5,0-8-0.6c-6.8-1.8-14.1-1.2-20.9-1.2h-11.7c-4.9-1.2-9.2-0.6-13.5-0.6h-3.1c-4.9,0-8.6,1.2-12.9,1.2
		c-4.9,0.6-9.2,0.6-13.5,0.6c-3.1,0-6.8,0-9.2,0.6c-6.8,1.2-12.9,1.2-19,0.6h-8c-7.4,1.8-15.4,1.2-23.3-1.2h-5.5l-14.7-0.6
		c-3.1,0-6.1-0.6-9.2-1.8c-4.9-1.2-6.8-4.9-8-9.2c-0.6-8-1.8-16,0-23.3v-3.7c-0.6-4.9,0-8.6,0-12.9v-4.3l-0.6-3.1
		c-0.6-7.4-1.2-14.7-0.6-22.1l1.2-11.1c1.2-12.9,1.2-26.4,1.2-39.3c0-7.4-1.2-14.1-1.2-20.9l-0.6-18.4l0.6-10.4
		c0.6-6.8,1.2-14.1,0.6-21.5l-0.6-18.4c-0.6-11.7-0.6-23.3-2.5-35v-19.7c0.6-7.4,0.6-15.4,1.2-22.7v-7.4l0-14.7
		c-0.6-4.9-1.2-10.4-0.6-15.4c0-6.8,0-12.9,0.6-19l0.6-18.4v-10.4c0-4.9,0-9.8,0.6-14.7c0.6-4.9,0.6-9.2,0.6-13.5v-14.1
		c1.2-1.8,0.6-4.3,0.6-6.1l0.6-14.7c0.6-4.9,3.7-8.6,8.6-9.2h23.3c4.9-0.6,9.2-1.2,14.1-0.6c10.4,0.6,20.9,1.2,31.3,0.6h15.4
		c2.5-0.6,5.5-0.6,8,0c3.1,0.6,6.1,0.6,8.6,0c2.5-0.6,4.9,0,8-0.6c7.4-0.6,15.4-0.6,23.3,0c2.5,0.6,4.9,0.6,7.4,0.6h8
		c0.6,0.6,1.8,0.6,2.5,0.6l9.2,1.2h5.5l9.2,0.6h1.8c9.2-1.8,18.4-1.8,28.3-1.8h11.1c3.1,0.6,6.1,0.6,8.6,0l11.1-0.6
		c4.9,0,9.2,0,14.1,0.6h15.4c6.1,0,11.7,0,17.8-0.6h2.5l9.8-1.2h3.1c4.9,0.6,9.2,1.2,14.1,0.6c3.1-0.6,6.8-0.6,9.8,0
		c6.8,1.2,13.5,1.2,19.7,1.2h27l14.1-0.6l20.3-1.8l9.8,1.2h1.8c5.5,0,11.1,1.2,16,1.2h11.1c9.8,1.2,19.7,0.6,28.9-0.6h6.8
		c3.7-1.2,8-0.6,11.7,0c4.9,0.6,9.2,0,14.1,0.6c6.8,0.6,14.1,0,21.5,1.2h12.3c3.1,0.6,6.8,0.6,9.8,0l14.7-1.2l25.2,0.6
		c4.9,0,9.2,0,13.5-0.6h9.2l8.6,0.6h9.2c6.1-1.2,12.3-1.8,18.4-1.8l22.1-1.2c3.1,0,6.8,0.6,9.8,1.8c3.7,1.2,4.9,4.9,5.5,8
		c0.6,7.4,1.2,14.7,0.6,23.3V331c-0.6,9.2-0.6,18.4,1.2,27.7c0.6,5.5,0.6,11.7,0,17.2c0,7.4,0,14.1,0.6,20.9
		c1.2,5.5,0.6,11.7-0.6,17.8S859,426.3,859,433v4.9l1.2,14.1c0,6.1,0.6,11.7-0.6,18.4c-1.2,7.4-1.2,15.4-0.6,23.3l1.2,12.9
		l-0.6,11.1l-1.2,9.2l0.6,4.9v12.3l0.6,16c0.6,4.9,0.6,9.2,0,14.1v9.2c0,4.9,0.6,9.2,1.2,13.5v1.2c-0.6,4.9,0,8.6,0,12.9
		c0,4.9,0,9.2,1.2,14.1l-1.2,11.7c-0.6,7.4-1.8,14.1-1.2,20.9c0.6,5.5,0.6,11.1,1.8,16.6C861.4,677.6,860.8,683.1,860.8,688.6"/>
</g>
</svg>
