<svg viewBox="0 0 1024 1024" version="1.1" xmlns="http://www.w3.org/2000/svg" p-id="2002"><path d="M924.371 337.781c-22.543-53.298-54.81-101.158-95.902-142.25s-88.952-73.358-142.25-95.902C631.021 76.282 572.405 64.445 512 64.445S392.979 76.282 337.781 99.629c-53.298 22.543-101.158 54.81-142.25 95.902s-73.358 88.952-95.902 142.25C76.283 392.979 64.445 451.594 64.445 512s11.838 119.021 35.184 174.219c22.543 53.299 54.81 101.158 95.902 142.251 41.092 41.092 88.952 73.358 142.25 95.901 55.198 23.347 113.813 35.185 174.219 35.185s119.021-11.838 174.219-35.185c53.298-22.543 101.158-54.81 142.25-95.901 41.092-41.093 73.358-88.952 95.902-142.251 23.346-55.197 35.184-113.813 35.184-174.219S947.717 392.979 924.371 337.781zM571.254 143.381c-5.887 17.72-36.559 5.828-49.216 5.887 9.949-3.885 24.843-9.066 33.203-15.189 1.505-1.084 1.977-2.051 2.183-2.984 5.472 0.642 10.919 1.393 16.335 2.265-5.174 2.319-10.115 5.012-14.75 8.078C563.13 142.145 567.192 142.734 571.254 143.381zM417.484 151.623c6.476 6.711 14.188-3.591 20.605-6.829 14.953-7.594 35.028-8.36 51.63-11.539-2.885 7.83-26.668 5.004-34.969 7.948-10.42 3.885-5.769 6.535-13.069 18.191 3.12-0.353 6.476 1.472 9.655 1.354l0 2.237c-7.182-0.706-14.011-4.062-15.601 4.474-9.125-13.835-15.13-12.716-24.902-0.471 9.655 5.298 19.192 12.068 11.539 21.252-9.302 11.303-14.953-2.59-5.357-8.418-8.713-3.944-15.424-10.714-22.194-2.061 2.885-0.235 6.005 1.177 8.948 1.177-1.707 2.414-3.356 10.126-4.945 11.009-3.709 2.119-17.485-2.473-21.606-3.061-10.126-1.236-20.251-0.942-30.73-0.353 1.884 12.775-12.481 0.53-17.72-2.649 9.478-9.537 21.017-5.946 31.908-4.415 9.125 1.236 22.665 1.177 23.725-10.42-10.008-2.06-14.835-1.472-19.957-9.066-0.393-0.59-0.754-1.183-1.096-1.778 17.67-7.426 35.9-13.513 54.566-18.199C415.317 143.957 414.263 148.288 417.484 151.623zM240.786 783.215C168.342 710.77 128.445 614.451 128.445 512c0-87.366 29.019-170.269 82.487-237.714 6.448 4.721 12.221 9.267 14.869 11.621 6.594 5.652 9.831 12.422 13.952 19.31 0.177 0.294 3.886 6.005 5.298 8.301 4.474 4.474 8.124 9.478 9.066 15.601 1.236 7.359-1.531 13.422-2.178 21.076-2.119 23.431 1.236 45.389 19.486 61.814 5.063 4.533 11.715 6.888 16.719 11.774 5.18 4.945 4.592 8.36 7.771 13.54 8.359 13.893 19.545 26.963 29.2 40.091 8.477 11.421 12.01 9.184 3.65-2.649-5.593-8.065-12.598-15.954-17.249-24.549-0.53-0.942-5.24-12.245-3.65-11.951 13.01 2.826 15.659 11.715 24.137 22.135 8.36 10.361 15.424 16.131 20.31 28.493 5.71 14.423 14.364 21.488 28.611 27.787 6.947 3.179 18.367 11.48 25.844 12.422 8.89 1.177 13.54-4.533 21.841-0.53 5.593 2.59 9.831 11.127 16.778 13.128 6.594 2.002 11.009-0.471 17.131 3.65 7.359 5.063 9.949 13.599 16.896 18.839 5.004 3.768 12.127 8.536 18.426 9.537 4.533 0.706 9.478-2.649 14.011-1.177 8.124 2.59 9.949 12.481 7.477 20.428-2.708 8.889-10.95 14.364-14.306 23.136-3.002 7.948-1.06 14.659-2.06 22.253-1.118 7.83-7.359-0.059-1.118 13.246 2.943 6.24 7.3 11.774 11.009 17.485 7.418 11.303 12.716 21.135 22.724 30.201 7.006 6.358 22.371 13.835 25.903 23.372 3.061 8.418 0.471 27.022-1.06 35.97-3.356 18.662-2.826 41.151-8.006 58.517-5.004 16.896-10.832 21.959-6.535 40.385 1.825 7.889 3.238 4.003 0 14.129-1.001 2.944-0.059 4.121-1.177 7.064-2.323 6.157-7.849 9.912-10.259 16.174-7.444 0.427-14.927 0.648-22.445 0.648C409.549 895.555 313.229 855.659 240.786 783.215zM783.214 783.215c-56.433 56.434-127.356 93.113-204.378 106.571-0.111-0.325-0.174-0.636-0.165-0.925 0-2.002 7.948-12.245 9.007-14.835 1.707-4.003 2.943-12.834 5.416-16.013 4.298-5.416 13.423-3.414 11.715-13.422 20.487-0.236 29.259-3.356 32.614-24.196-3.65-1.766-2.885-0.706-3.474-3.885 0.706 3.827 15.307-1.472 16.66 1.177 1.06 2.002 19.663-23.372 21.664-25.491 5.298-5.534 9.89-9.831 13.187-16.484 1.354-2.59 2.767-10.597 5.534-14.482-0.177 0.706-0.412 1.295-0.707 2.002 6.652-10.479 15.071-9.302 24.549-13.481 9.537-4.239 2.649-3.12 9.655-9.714 8.301-7.771 10.185-3.297 12.539-16.189 1.707-9.537-0.53-18.132 2.531-26.727 3.827-10.832 13.187-14.364 19.368-23.548 4.71-7.123 9.125-18.544 2.767-25.609-5.298-5.828-21.135-10.714-28.258-12.422-8.419-2.002-18.191-2.178-26.139-5.416-9.302-3.827-17.073-13.658-21.782 1.648-1.368-0.912-6.256-3.695-7.597-5.543-0.222-0.154-0.351-0.415-0.351-0.815 0 0.238 0.134 0.516 0.351 0.815 1.672 1.158 8.86-3.983 9.951-5.231-3.662 0.225-15.999 2.929-18.704 2.025 1.013 0.511 3.07 0.285 4.045 0.448-4.043 2.168-4.877 1.419-4.305-0.562-0.016-0.01-0.037-0.017-0.052-0.027 1.119-3.827 7.653-12.363 7.771-14.011 0.647-9.478-13.069-20.31-20.546-22.43-10.243-2.943-16.013-1.648-24.726-8.006-10.656-7.83-20.899-16.425-34.38-17.897-2.767-0.353-5.887 1.236-8.89 0.824-7.241-1.06-9.655-5.769-15.718-7.359-7.477-1.825-10.361 4.592-14.776 4.592-6.653 0-8.183-6.888-17.838-1.119-14.188 8.595-6.417 13.952-22.724 9.831-8.536-2.119-18.191 3.12-26.433-2.59-7.359-5.122-9.066-19.31-1.825-25.314-3.709 3.061-3.591-6.594-6.24-8.301-4.18-2.826-11.127 0.471-16.013-0.706-6.593-1.648-10.42-2.237-8.948-8.595 1.648-6.947 19.957-25.844 1.177-25.373-10.185 0.294-13.422 15.424-24.255 17.72-12.186 2.473-22.842-1.707-29.141-12.481-13.128-22.489 7.771-50.158 29.082-52.1 16.602-1.59 41.033-13.893 53.278 4.533 3.591 5.416 12.304 26.08 16.778 12.657 1.41-4.053-3.451-21.701-5.052-29.148-0.043 0.046-0.086 0.098-0.129 0.184-0.059-0.824-0.118-1.648-0.235-2.414 0.057 0.517 0.227 1.206 0.399 2.114 3.417-5.26 8.862-8.609 13.2-13.182-0.53 0.589-1.119 1.119-1.707 1.707 4.297-4.239 15.542-9.243 17.543-15.13 1.06-3.238-3.885-7.477-1.295-12.01 1.943-3.414 6.829-2.06 8.713-4.356 2.708-3.356 3.002-8.713 5.887-12.186 2.943-3.532 8.595-4.003 11.539-6.711 6.829-6.181 8.654-13.305 16.719-17.072 7.536-5.122 15.601-13.835 25.197-9.89-3.415 3.944-12.245 6.417-14.835 10.126-1.707 2.531 13.128 1.06 15.13 0.353 8.36-3.061 14.953-9.36 21.959-13.952 12.069-8.006 26.139-8.419 40.739-5.416 4.474 0.883-8.124-17.249-9.419-18.721-5.063-5.887-6.299-11.068-14.541-3.532-2.414 2.178-4.886 9.596-6.594 12.716-4.973 9.098-4.094 8.328-14.011 13.405-0.405 0.234-0.829 0.453-1.295 0.665 0.454-0.234 0.88-0.453 1.295-0.665 0.158-0.091 0.322-0.178 0.471-0.277-8.242 1.589-16.13 5.181-19.545-5.063-1.06-3.356 3.709-8.36 1.06-11.833-5.828-7.535-25.373 8.419-32.32 10.95 3.591-28.081 36.794-13.246 54.514-18.897 4.827-1.531 22.959-8.477 23.96-13.01 1.472-6.829-14.364-17.779-18.014-20.899-7.712-6.711-11.892-10.479-16.307-20.84-4.651-11.009-7.653-21.959-19.368-13.893-4.356 3.061-1.177 9.596-8.713 10.656-4.71 0.589-9.537-5.357-12.245-8.124-4.062-4.239-8.36-14.6-15.777-15.542-6.476-0.765-24.314-10.244-32.673-4.121-6.476 4.71 0.824 22.43 2.767 28.729 4.18 13.717 6.829 14.188-4.827 22.783-5.711 4.18-9.125-0.294-7.065 11.009 1.119 5.946 7.418 7.006 2.944 12.127-2.767 3.061-9.419 2.767-12.657 1.236-10.126-4.71-1.06-11.009-5.887-17.72-3.65-5.063-23.018-9.125-29.612-12.186-14.659-6.593-53.278-13.658-41.386-36.323 3.179-6.181 15.247-15.306 20.781-18.78 5.652-3.65 12.657-4.651 17.367-9.655 2.649-2.826 2.826-10.656 5.24-12.539 3.356-2.708 13.128-1.413 18.309-1.354 22.489-4.474 2.002-37.147 31.672-31.26 8.183 1.648 16.366 9.949 23.136 14.6 7.594 5.181 10.126 4.592 7.712 12.539-0.53 1.825-9.007 10.067-11.185 11.774-3.885 3.061-10.302 4.474-14.953 6.358 15.483 0 21.959-0.765 34.616 7.653 10.773 7.182 17.544 11.951 30.907 11.421-0.765-6.535-12.245-4.003-11.774-10.42 0.353-5.357 7.241 1.766 8.124 1.825 3.65 0.118 13.246 4.533 11.185-5.828-1.825-9.066-21.664-4.768-15.306-19.604 8.889-0.883 6.476 8.889 12.422 11.009 6.299 2.237 14.482-5.416 15.836-10.714-8.831-4.533-35.793-11.774-32.732-24.549 18.014 11.48 35.97 23.018 53.926 34.439-14.541 13.069 10.656 5.71 12.186 6.123 4.297 1.119 15.189 10.479 8.065 12.245-7.477 1.825-11.244-9.007-18.78-0.942 6.299 1.648 28.376 2.944 22.43 14.835-2.355 4.71-16.601 3.944-20.781 13.246 3.061-0.589 6.299 0.353 9.419-0.471-6.829 10.538 3.179 17.485 8.713 25.962 6.299 9.537 15.012 24.255 27.434 27.257 26.433 6.593 23.195-36.441 43.27-43.211 5.593-1.943 11.598-0.589 17.249-2.119 6.181-1.707 9.596-6.24 14.482-9.655 11.192-7.695 21.018-8.355 34.22-8.772 39.613 40.478 69.212 88.202 87.557 140.157-2.013 1.588-4.377 2.29-6.155 4.606-1.766 2.296-1.472 4.121-2.943 6.77-0.707 1.295-2.414 1.825-3.12 3.356-1.59 3.414 0.236 8.772 0 12.539-0.177 4.474-1.707 8.595 0.765 12.481 2.355 3.709 6.182 7.477 9.478 10.361 3.238 2.767 6.594 5.769 11.068 5.593 0.82-0.037 3.593-0.405 5.76-0.863 1.09 5.67 2.056 11.374 2.891 17.11-4.423 4.089-8.67 9.739-10.653 13.366-3.415 6.064-3.238 9.831-8.536 14.6-4.945 4.474-11.067 5.887-15.542 11.656-4.18 5.416-3.415 9.655-6.888 15.895-1.59 2.944-5.534 4.121-7.241 7.771-3.65 7.889 0.589 20.369 0.236 29.082-0.412 10.479-4.003 19.839 1.766 28.906 5.416 8.477 14.306 17.367 21.9 23.96 4.913 4.268 9.996 8.694 15.842 11.075C865.163 676.306 831.388 735.04 783.214 783.215zM668.744 622.824c0 0.059 0.118 0.059 0.118 0.059C668.802 622.883 668.744 622.883 668.744 622.824z" fill="#282828"></path></svg>